<svg xmlns="http://www.w3.org/2000/svg" xmlns:xlink="http://www.w3.org/1999/xlink" version="1.1" x="0px" y="0px" viewBox="0 0 100 100" enable-background="new 0 0 100 100" xml:space="preserve"><path d="M86.737,7.69c0,0-4.699-2.452-15.395,4.328c-3.855-1.691-8.25-2.652-12.918-2.652c-4.722,0-9.166,0.982-13.053,2.71  C34.61,5.223,29.885,7.69,29.885,7.69c-0.831,8.456,1.672,12.921,3.45,14.97c-1.619,2.905-2.528,6.136-2.528,9.545  c0,10.778,9.03,19.805,21.173,22.207c0,0.004-0.001,0.007-0.001,0.011v0.816c0,0.581-0.462,1.063-1.043,1.071  c-2.976,0.041-6.177,0.501-9.428,1.431C33.534,60.02,27.3,64.524,24.66,69.32c-9.01-7.169-9.347-16.075-9.347-16.075  c-4.389,9.472,1.63,15.81,8.08,19.634c-0.103,0.654-0.134,1.305-0.083,1.948c-0.038,0.338-0.039,0.684,0.011,1.036l1.941,13.599  c0.32,2.244,2.419,3.818,4.663,3.498h0c2.244-0.32,3.818-2.419,3.498-4.663l-0.697-4.883c0.545,0.128,1.107,0.238,1.685,0.329  l0.276,1.936c0.32,2.244,2.419,3.818,4.663,3.498c2.244-0.32,3.818-2.419,3.498-4.663l-0.098-0.688  c1.913-0.23,3.884-0.62,5.874-1.189c2.018-0.577,3.923-1.297,5.688-2.128l-0.056,8.341c-0.015,2.267,1.827,4.134,4.094,4.149  s4.134-1.827,4.149-4.094l0.078-11.705l1.326,4.038c0.707,2.154,3.048,3.337,5.202,2.63h0c2.154-0.707,3.337-3.048,2.63-5.202  l-4.287-13.051l-2.767-5.963c-0.019-0.164,0.021-0.33,0.021-0.498v-4.712c12.226-2.352,21.338-11.412,21.338-22.239  c0-3.472-0.941-6.76-2.617-9.707C85.19,20.379,87.546,15.93,86.737,7.69z M44.697,28.949c-0.195,0.219-0.466,0.331-0.739,0.331  c-0.233,0-0.468-0.082-0.656-0.249c-0.408-0.363-0.445-0.987-0.082-1.395c0.087-0.097,2.162-2.393,5.224-2.503  c1.966-0.069,3.839,0.754,5.582,2.452c0.391,0.381,0.399,1.006,0.018,1.397c-0.381,0.391-1.007,0.399-1.397,0.018  c-1.341-1.306-2.732-1.946-4.132-1.893C46.324,27.186,44.713,28.931,44.697,28.949z M61.526,48.928  c-0.939-0.548-2.026-0.868-3.186-0.868h0c-1.012,0-1.967,0.245-2.818,0.67c-4.858-1.191-8.391-4.808-8.391-9.085  c0-2.311,1.033-3.276,2.748-3.633c0.58,1.743,1.644,4.451,2.806,5.032c1.076,0.538,0.989-2.659,0.766-5.186  c1.658,0.069,3.547,0.226,5.554,0.226c1.846,0,3.593-0.133,5.151-0.208c-0.222,2.525-0.306,5.706,0.767,5.168  c1.179-0.589,2.255-3.362,2.83-5.1c1.941,0.294,3.127,1.225,3.127,3.701C70.88,44.2,66.872,48.002,61.526,48.928z M74.09,28.982  c-0.381,0.391-1.006,0.399-1.397,0.018c-1.341-1.306-2.732-1.946-4.132-1.893c-2.192,0.079-3.803,1.824-3.819,1.842  c-0.195,0.219-0.466,0.331-0.739,0.331c-0.234,0-0.468-0.082-0.656-0.249c-0.408-0.363-0.445-0.987-0.082-1.395  c0.087-0.097,2.162-2.393,5.224-2.503c1.966-0.069,3.839,0.754,5.582,2.452C74.463,27.966,74.471,28.591,74.09,28.982z"/></svg>